<?xml version="1.0" encoding="UTF-8"?><svg id="Layer_2" xmlns="http://www.w3.org/2000/svg" xmlns:xlink="http://www.w3.org/1999/xlink" viewBox="0 0 2540.87 2592"><defs><style>.cls-1{fill:url(#linear-gradient);}.cls-2{fill:url(#linear-gradient-3);}.cls-3{fill:url(#linear-gradient-4);}.cls-4{fill:url(#linear-gradient-2);}.cls-5{fill:url(#linear-gradient-6);}.cls-6{fill:url(#linear-gradient-7);}.cls-7{fill:url(#linear-gradient-5);}</style><linearGradient id="linear-gradient" x1="-217.28" y1="2289.05" x2="3732.36" y2="-540.05" gradientUnits="userSpaceOnUse"><stop offset=".11" stop-color="#1a0442"/><stop offset=".23" stop-color="#4b133a"/><stop offset=".37" stop-color="#7d2432"/><stop offset=".51" stop-color="#a6312c"/><stop offset=".65" stop-color="#c73c27"/><stop offset=".77" stop-color="#de4323"/><stop offset=".9" stop-color="#ec4821"/><stop offset="1" stop-color="#f14a21"/></linearGradient><linearGradient id="linear-gradient-2" x1="-1249" y1="3490.42" x2="2786.25" y2="234.23" gradientUnits="userSpaceOnUse"><stop offset="0" stop-color="#f14a21"/><stop offset=".1" stop-color="#ea4722"/><stop offset=".24" stop-color="#d74124"/><stop offset=".41" stop-color="#b73729"/><stop offset=".6" stop-color="#8c2930"/><stop offset=".81" stop-color="#551738"/><stop offset="1" stop-color="#1a0442"/></linearGradient><linearGradient id="linear-gradient-3" x1="1240.99" y1="1321.84" x2="2630.85" y2="479.77" gradientUnits="userSpaceOnUse"><stop offset="0" stop-color="#1a0442"/><stop offset=".75" stop-color="#ba3829"/><stop offset="1" stop-color="#f14a21"/></linearGradient><linearGradient id="linear-gradient-4" x1="284.11" y1="1212.53" x2="2916.24" y2="1212.53" gradientUnits="userSpaceOnUse"><stop offset="0" stop-color="#f14a21"/><stop offset=".25" stop-color="#a6312c"/><stop offset=".6" stop-color="#42113b"/><stop offset=".76" stop-color="#1a0442"/></linearGradient><linearGradient id="linear-gradient-5" x1="1254.83" y1="2304.82" x2="4919.17" y2="-4042" gradientUnits="userSpaceOnUse"><stop offset="0" stop-color="#1a0442"/><stop offset=".05" stop-color="#3f103c"/><stop offset=".13" stop-color="#681d35"/><stop offset=".2" stop-color="#8d2930"/><stop offset=".28" stop-color="#ac332b"/><stop offset=".37" stop-color="#c53b27"/><stop offset=".47" stop-color="#d94224"/><stop offset=".59" stop-color="#e64622"/><stop offset=".73" stop-color="#ee4921"/><stop offset="1" stop-color="#f14a21"/></linearGradient><linearGradient id="linear-gradient-6" x1="1152.14" y1="816.68" x2="2646.82" y2="128.73" gradientUnits="userSpaceOnUse"><stop offset="0" stop-color="#1a0442"/><stop offset=".13" stop-color="#49133a"/><stop offset=".29" stop-color="#7c2332"/><stop offset=".45" stop-color="#a6312c"/><stop offset=".6" stop-color="#c63c27"/><stop offset=".75" stop-color="#de4323"/><stop offset=".88" stop-color="#ec4821"/><stop offset="1" stop-color="#f14a21"/></linearGradient><linearGradient id="linear-gradient-7" x1="-598.52" y1="2504.52" x2="2094.1" y2="499.36" gradientUnits="userSpaceOnUse"><stop offset=".33" stop-color="#1a0442"/><stop offset=".38" stop-color="#3a0e3c"/><stop offset=".46" stop-color="#6a1e35"/><stop offset=".54" stop-color="#932b2f"/><stop offset=".63" stop-color="#b5362a"/><stop offset=".72" stop-color="#cf3f26"/><stop offset=".81" stop-color="#e24523"/><stop offset=".9" stop-color="#ed4821"/><stop offset="1" stop-color="#f14a21"/></linearGradient></defs><g id="Layer_1-2"><path class="cls-1" d="m815.27,1499.95v189.67c-20.97.13-40.36.25-61.33.41l-116.07,1.03c-11.04.12-22.75.06-34.58.23-19.66.28-39.69,1.22-57.68,4.84-125.83,21.23-227.29,136.63-229.08,264.09-.12,2.45-.22,4.9-.27,7.35-1.28,59.28,19.3,117.09,54.49,163.66-2.64-3.03-5.23-6.09-7.79-9.18-1.3-1.55-2.56-3.09-3.83-4.65-1.25-1.53-2.5-3.08-3.73-4.62-1.26-1.59-2.53-3.2-3.78-4.81-1.23-1.58-2.45-3.17-3.67-4.78-2.4-3.15-4.78-6.34-7.1-9.56-.94-1.3-1.87-2.59-2.81-3.9-.55-.75-1.08-1.5-1.59-2.25-.91-1.26-1.8-2.53-2.67-3.81-1.06-1.51-2.11-3.03-3.14-4.56-2.12-3.14-4.23-6.29-6.29-9.48-.7-1.09-1.41-2.17-2.09-3.26-3.01-4.7-5.96-9.45-8.82-14.25-.83-1.36-1.62-2.72-2.42-4.09-.83-1.39-1.62-2.78-2.42-4.17-1.22-2.11-2.42-4.22-3.59-6.35-.72-1.26-1.42-2.53-2.11-3.81-1.84-3.36-3.64-6.75-5.4-10.15-.67-1.28-1.34-2.58-2-3.87-2.2-4.32-4.36-8.67-6.43-13.05-.62-1.28-1.23-2.58-1.83-3.87-.17-.36-.34-.7-.5-1.06-.61-1.28-1.19-2.58-1.78-3.87-.67-1.47-1.34-2.95-2-4.43-1.98-4.45-3.9-8.93-5.75-13.43-.62-1.5-1.25-3-1.84-4.51-1.84-4.53-3.61-9.09-5.29-13.66-.58-1.53-1.14-3.06-1.69-4.59-.55-1.48-1.08-2.97-1.61-4.47-2.2-6.23-4.28-12.52-6.25-18.86-.48-1.55-.95-3.09-1.42-4.62-.48-1.58-.95-3.15-1.41-4.73-.94-3.15-1.83-6.32-2.69-9.49-.44-1.59-.86-3.19-1.28-4.78-.42-1.59-.84-3.19-1.25-4.79-.81-3.2-1.59-6.4-2.34-9.63-.38-1.61-.75-3.22-1.11-4.84-.34-1.51-.69-3.03-1.01-4.56-.05-.17-.08-.34-.11-.53-.33-1.55-.66-3.09-.98-4.64-.34-1.62-.67-3.25-.98-4.89-.95-4.9-1.86-9.82-2.69-14.75-.28-1.66-.55-3.29-.81-4.95-.28-1.65-.53-3.31-.76-4.97,0-.02,0-.05-.02-.06-.98-6.56-1.86-13.16-2.59-19.81-.19-1.61-.38-3.23-.53-4.86-.17-1.51-.31-3.03-.45-4.54-.14-1.37-.27-2.75-.38-4.12-.08-.7-.13-1.41-.19-2.11-.13-1.37-.23-2.76-.33-4.15-.03-.3-.06-.61-.08-.92-.13-1.76-.25-3.53-.38-5.31v-.09c.34-50.99,19.63-97.49,51.18-132.79.02-.02.03-.03.05-.05,2.12-2.09,4.28-4.18,6.43-6.25.44-.42.86-.83,1.3-1.23,1.76-1.69,3.54-3.37,5.34-5.01,2.22-2.08,4.43-4.11,6.68-6.12.67-.62,1.36-1.25,2.05-1.84.19-.17.36-.33.55-.5,1.61-1.42,3.22-2.84,4.84-4.25.37-.34.76-.67,1.16-1.02,1.89-1.64,3.78-3.26,5.68-4.86,1.37-1.17,2.76-2.34,4.15-3.5.16-.13.31-.27.48-.39,1.44-1.2,2.89-2.4,4.36-3.59.64-.52,1.28-1.03,1.92-1.55,2.45-2,4.93-3.97,7.43-5.89,2.33-1.84,4.67-3.64,7.03-5.42,1.55-1.17,3.09-2.34,4.65-3.48,1.75-1.31,3.51-2.61,5.28-3.87,3.58-2.61,7.17-5.15,10.8-7.67,1.75-1.22,3.51-2.44,5.29-3.62,1.76-1.2,3.54-2.4,5.34-3.59.2-.13.42-.27.62-.41,1.66-1.09,3.31-2.17,4.98-3.25,4.96-3.2,9.98-6.34,15.04-9.38,1.25-.77,2.5-1.51,3.76-2.26,1.19-.72,2.39-1.42,3.59-2.11,3.78-2.22,7.59-4.4,11.43-6.53,1.69-.94,3.39-1.87,5.09-2.79.61-.34,1.23-.67,1.84-1,1.23-.67,2.45-1.33,3.69-1.97,4.2-2.23,8.45-4.42,12.71-6.54,1.97-.98,3.93-1.97,5.92-2.92,3.97-1.94,7.95-3.81,11.96-5.65,2-.92,4.01-1.83,6.03-2.73,2.01-.91,4.04-1.8,6.07-2.67,1.87-.81,3.75-1.61,5.62-2.39.16-.08.33-.14.48-.2,4.07-1.72,8.18-3.37,12.3-5,2.06-.81,4.12-1.61,6.2-2.4,4.7-1.78,9.42-3.51,14.18-5.18,1.37-.48,2.73-.97,4.11-1.44,2.28-.78,4.56-1.55,6.85-2.31,2.12-.7,4.25-1.39,6.37-2.06,1.81-.58,3.62-1.14,5.45-1.7,1.36-.42,2.72-.83,4.09-1.23,1.36-.42,2.73-.83,4.11-1.22,9.59-2.79,19.27-5.36,29.06-7.68,1.41-.34,2.79-.66,4.2-.98,2.89-.67,5.78-1.31,8.68-1.92,1.33-.3,2.65-.58,3.98-.84.33-.08.66-.14,1-.2,1.56-.33,3.14-.64,4.72-.95,1.73-.34,3.47-.69,5.21-1,1.06-.2,2.12-.41,3.19-.59,1.66-.31,3.31-.61,4.98-.89,1.59-.28,3.2-.55,4.79-.81,1.5-.25,3-.5,4.5-.72,1.41-.23,2.79-.44,4.2-.66,1.36-.2,2.72-.41,4.07-.59,1.7-.25,3.42-.48,5.14-.7,1.45-.2,2.92-.41,4.37-.58,2.28-.3,4.54-.56,6.82-.83,2.09-.25,4.18-.47,6.28-.69,6.54-.69,13.13-1.26,19.74-1.75,1.11-.08,2.22-.16,3.33-.22,2.17-.16,4.32-.28,6.5-.39,1.42-.09,2.86-.16,4.28-.23,5.29-.25,10.6-.44,15.93-.56,2.14-.05,4.28-.08,6.42-.09,2.34-.03,4.68-.05,7.04-.05h105.63Z"/><path class="cls-4" d="m1224.88,1970.88c-.11,3.5-.2,6.99-.31,10.49-.72,51.54-8.29,103.02-22.05,152.86-30.96,112.43-93.26,216.53-178.79,294.13-59.6,56.01-130.58,98.47-206.9,126.1-129.81,46.98-275.13,51.01-406.47,5.64-66.4-21.95-126.55-54.98-179.04-96.35-198.37-156.35-287.66-431.89-194.04-679.06,50.88-142.05,159.26-257.59,292.14-323.67,20.8-10.35,42.2-19.49,64.09-27.31,63.94-22.9,131.93-34.68,200.82-33.15,27.95.17,129.61,1.22,159.6,1.42,20.47.14,40.95.28,61.42.41.44,32.52.94,65.05,1.47,97.57h-107.19c-2.36,0-4.7.02-7.04.05-2.14.02-4.28.05-6.42.09-5.32.12-10.63.31-15.93.56-1.42.08-2.86.14-4.28.23-2.17.11-4.32.23-6.5.39-1.11.06-2.22.14-3.33.22-6.6.48-13.19,1.06-19.74,1.75-2.09.22-4.18.44-6.28.69-2.28.27-4.54.53-6.82.83-1.45.17-2.92.37-4.37.58-1.72.22-3.43.45-5.14.7-1.36.19-2.72.39-4.07.59-1.41.22-2.79.42-4.2.66-1.5.22-3,.47-4.5.72-1.59.27-3.2.53-4.79.81-1.67.28-3.33.58-4.98.89-1.06.19-2.12.39-3.19.59-1.75.31-3.48.66-5.21,1-1.58.31-3.15.62-4.72.95-.34.06-.67.12-1,.2-1.33.27-2.65.55-3.98.84-2.9.61-5.79,1.25-8.68,1.92-1.41.33-2.79.64-4.2.98-9.79,2.33-19.47,4.89-29.06,7.68-1.37.39-2.75.8-4.11,1.22-1.37.41-2.73.81-4.09,1.23-1.83.56-3.64,1.12-5.45,1.7-2.12.67-4.25,1.36-6.37,2.06-2.29.77-4.57,1.53-6.85,2.31-1.37.47-2.73.95-4.11,1.44-4.76,1.67-9.48,3.4-14.18,5.18-2.08.78-4.14,1.58-6.2,2.4-4.12,1.61-8.23,3.28-12.3,5-.16.06-.33.13-.48.2-1.87.78-3.75,1.58-5.62,2.39-2.03.87-4.06,1.76-6.07,2.67-2.01.89-4.03,1.8-6.03,2.73-4.01,1.83-7.99,3.72-11.96,5.65-1.98.95-3.95,1.94-5.92,2.92-4.26,2.12-8.51,4.31-12.71,6.54-1.23.64-2.45,1.3-3.69,1.97-.61.33-1.23.66-1.84,1-1.7.91-3.4,1.84-5.09,2.79-3.84,2.12-7.65,4.31-11.43,6.53-1.2.69-2.4,1.39-3.59,2.11-1.26.75-2.51,1.5-3.76,2.26-5.06,3.04-10.07,6.18-15.04,9.38-1.67,1.08-3.33,2.15-4.98,3.25-.2.14-.42.28-.62.41-1.8,1.19-3.58,2.39-5.34,3.59-1.78,1.19-3.54,2.4-5.29,3.62-3.64,2.51-7.23,5.06-10.8,7.67-1.76,1.26-3.53,2.56-5.28,3.87-1.56,1.14-3.11,2.31-4.65,3.48-2.36,1.78-4.7,3.58-7.03,5.42-2.5,1.92-4.98,3.89-7.43,5.89-.64.52-1.28,1.03-1.92,1.55-1.47,1.19-2.92,2.39-4.36,3.59-.17.12-.33.27-.48.39-1.39,1.16-2.78,2.31-4.15,3.5-1.91,1.59-3.79,3.22-5.68,4.86-.39.34-.78.67-1.16,1.02-1.62,1.39-3.23,2.81-4.84,4.25-1.09.98-2.19,1.95-3.26,2.95-1.44,1.28-2.86,2.58-4.28,3.9-.75.67-1.5,1.37-2.25,2.09-1.61,1.48-3.23,3-4.82,4.53-.44.41-.86.81-1.3,1.23-2.15,2.06-4.31,4.14-6.43,6.25-.02.02-.03.03-.05.05-2.28,2.23-4.53,4.5-6.76,6.78-2.58,2.61-5.11,5.23-7.6,7.88-1.75,1.83-3.47,3.67-5.17,5.51-.56.61-1.12,1.22-1.67,1.83-1.59,1.72-3.15,3.45-4.72,5.2-.34.37-.69.76-1.01,1.16-1.59,1.75-3.14,3.51-4.67,5.29-.84.95-1.66,1.9-2.47,2.86-1.03,1.17-2.03,2.36-3.01,3.54-.87,1.01-1.73,2.03-2.56,3.04-1.25,1.47-2.47,2.94-3.65,4.42-2.61,3.17-5.18,6.37-7.71,9.6-.52.67-1.05,1.33-1.56,2-111.15,142.86-116.91,341.84-13.85,490.66,99.71,143.96,266.07,238.25,454.45,238.25,48.68,0,95.9-6.29,140.86-18.13,145.66-38.3,267.82-134.6,340.27-262.71,35.69-63.06,59.32-133.84,67.78-209.21Z"/><path class="cls-2" d="m2404.44,1313.15c-10.85,16.82-22.31,33.18-34.35,49.1,27.92-76.12,43.14-158.35,43.14-244.15,0-367.29-279.14-669.38-636.86-705.7-.08-.02-.16-.03-.25-.03-44.48-5.76-89.82-5.82-134.56-.94-31.63,3.47-62.97,9.4-93.48,17.55-22.92,5.67-44.25,12.74-64.11,21.14,12.83-6.32,25.84-12.37,39-18.11,115.38-50.35,242.81-78.29,376.75-78.29,221.98,0,426.05,76.72,587.12,205.12,88.01,234.05,73.88,508.35-82.41,754.31Z"/><path class="cls-3" d="m2195.48,924.07c-12.43,320.7-276.36,576.9-600.12,576.9h-359.69c.3-18.08.59-36.18.86-54.27.22-14.6.42-29.18.62-43.78,60.83-.2,121.64-.55,182.46-1.03,10.26-.08,20.53-.16,30.79-.25,82.19-.77,164.44-1.26,246.63-2.67,26.36-.61,53.04-2.97,78.97-7.4,206.05-32.29,381.91-208.03,412.93-412.29,3.29-18.39,5.45-36.82,6.54-55.21Z"/><path class="cls-7" d="m2413.23,1118.1c0,85.8-15.22,168.03-43.14,244.15-113.87,150.59-279.23,260.23-461.99,306.1-28.82,7.24-58.07,12.9-87.62,16.86-45.56,6.42-91.95,8.62-137.93,7.6-77.38-1.33-154.76-1.7-232.14-2.47-38.58-.33-77.16-.59-115.74-.81-17.19-.11-34.38-.2-51.57-.27-17-.08-34.02-.16-51.02-.2.3-13.47.58-26.96.86-40.44,1.02-49.21,1.94-98.43,2.75-147.66h359.69c323.76,0,587.69-256.2,600.12-576.9,0-.16,0-.3.02-.45,1.69-28.99.67-57.88-2.86-86.33-21.97-177.64-141.55-338.14-313.36-400.21-33.29-12.02-67.83-20.13-102.91-24.69,92.18,9.35,179.15,36.36,257.47,77.6,225.58,118.76,379.39,355.46,379.39,628.1Z"/><path class="cls-5" d="m1302.28,607.39c46.48-67.97,104.93-124.95,181.69-157.26,12.83-6.32,25.84-12.37,39-18.11,115.38-50.35,242.81-78.29,376.75-78.29,221.98,0,426.05,76.72,587.12,205.12-58.13-154.51-160.76-291.47-296.39-391.13-59.42-14.82-121.58-22.67-185.58-22.67-270.27,0-507.8,140.21-643.79,351.87-9.48,14.74-18.45,29.84-26.9,45.25-11.62,21.16-22.27,42.92-31.89,65.24"/><path class="cls-6" d="m2190.45,167.71c-59.43-14.82-121.58-22.67-185.58-22.67-270.27,0-507.8,140.21-643.79,351.87-9.48,14.74-18.45,29.84-26.9,45.25-59.93,109.08-93.99,234.34-93.99,367.57,0,4.95.05,9.88.14,14.82v.25c-.02,3.81-.02,7.62,0,11.44.06,155.39-1.03,311.02-3.17,466.69-.2,14.6-.41,29.18-.62,43.78-1.02,67.31-2.22,134.64-3.61,201.93-.28,13.47-.56,26.96-.86,40.44-1.37,62.81-2.89,125.6-4.57,188.36-.69,25.87-1.41,51.73-2.16,77.58-.16,5.29-.3,10.57-.45,15.86-8.46,75.37-32.09,146.14-67.78,209.21-72.45,128.11-194.61,224.41-340.27,262.71-44.97,11.84-92.18,18.13-140.86,18.13-188.38,0-354.74-94.29-454.45-238.25-103.07-148.81-97.3-347.79,13.85-490.66.51-.67,1.05-1.33,1.56-2,2.53-3.23,5.1-6.43,7.71-9.6,1.19-1.48,2.4-2.95,3.65-4.42.83-1.02,1.69-2.03,2.56-3.04.98-1.19,1.98-2.37,3.01-3.54.81-.95,1.62-1.91,2.47-2.86,1.53-1.78,3.08-3.54,4.67-5.29.33-.39.67-.78,1.01-1.16,1.56-1.75,3.12-3.48,4.72-5.2.55-.61,1.11-1.22,1.67-1.83,1.7-1.84,3.42-3.68,5.17-5.51,2.5-2.65,5.03-5.28,7.6-7.88,2.23-2.28,4.48-4.54,6.76-6.78-31.55,35.3-50.84,81.8-51.18,132.79v.09c.13,1.78.25,3.54.38,5.31.02.31.05.62.08.92.09,1.39.2,2.78.33,4.15.06.7.11,1.41.19,2.11.11,1.37.23,2.75.38,4.12.14,1.51.28,3.03.45,4.54.16,1.62.34,3.25.53,4.86.73,6.65,1.61,13.26,2.59,19.81.02.02.02.05.02.06.23,1.66.48,3.31.76,4.97.25,1.66.52,3.29.81,4.95.81,4.93,1.72,9.85,2.69,14.75.31,1.64.64,3.26.98,4.89.33,1.55.66,3.09.98,4.64.03.19.06.36.11.53.33,1.53.67,3.04,1.01,4.56.34,1.62.72,3.23,1.11,4.84.75,3.23,1.53,6.43,2.34,9.63.41,1.59.81,3.2,1.25,4.79.41,1.59.83,3.19,1.28,4.78.86,3.17,1.75,6.34,2.69,9.49.45,1.58.92,3.15,1.41,4.73.45,1.55.92,3.09,1.42,4.62,1.97,6.34,4.04,12.63,6.25,18.86.53,1.5,1.06,2.98,1.61,4.47.55,1.53,1.11,3.06,1.69,4.59,1.69,4.58,3.45,9.13,5.29,13.66.59,1.51,1.22,3.01,1.84,4.51,1.84,4.5,3.76,8.98,5.75,13.43.66,1.48,1.33,2.97,2,4.43.59,1.3,1.17,2.59,1.78,3.87.16.36.33.7.5,1.06.59,1.3,1.2,2.59,1.83,3.87,2.08,4.39,4.23,8.73,6.43,13.05.66,1.3,1.31,2.59,2,3.87,1.76,3.4,3.56,6.79,5.4,10.15.69,1.28,1.39,2.54,2.11,3.81,1.17,2.14,2.37,4.25,3.59,6.35.8,1.39,1.59,2.78,2.42,4.17.8,1.37,1.59,2.73,2.42,4.09,2.86,4.81,5.81,9.56,8.82,14.25.69,1.09,1.39,2.17,2.09,3.26,2.06,3.19,4.17,6.34,6.29,9.48,1.03,1.53,2.08,3.04,3.14,4.56.87,1.28,1.76,2.54,2.67,3.81.52.75,1.05,1.5,1.59,2.25.94,1.31,1.87,2.61,2.81,3.9,2.33,3.22,4.7,6.4,7.1,9.56,1.22,1.61,2.44,3.2,3.67,4.78,1.25,1.61,2.51,3.22,3.78,4.81,1.23,1.55,2.48,3.09,3.73,4.62,1.26,1.56,2.53,3.11,3.83,4.65,2.56,3.09,5.15,6.15,7.79,9.18,14.91,19.75,32.44,37.47,52.06,52.43,27.07,20.67,58.11,36.08,91.67,44.26,1.78.47,3.56.92,5.32,1.36,151.59,36.66,297.03-80.46,297.03-236.42v-492.92c-.53-32.52-1.03-65.05-1.47-97.57-.14-9.54-.27-19.06-.39-28.6-.67-52.15-1.23-104.3-1.66-156.45-.8-93.74-1.17-187.46-1.12-281.09C807.09,395.74,1121.55-.16,1683.48,0c195.26,2.9,368.35,65.83,506.97,167.7Z"/></g></svg>