<?xml version="1.0" encoding="UTF-8"?>
<svg id="Layer_2" data-name="Layer 2" xmlns="http://www.w3.org/2000/svg" viewBox="0 0 212.2 128.31">
  <defs>
    <style>
      .cls-1 {
        fill: #8c1d40;
      }

      .cls-1, .cls-2 {
        stroke-width: 0px;
      }

      .cls-2 {
        fill: #ffc627;
      }
    </style>
  </defs>
  <g id="Layer_1-2" data-name="Layer 1">
    <g>
      <path class="cls-1" d="M46.15,36.49C23.98,36.49,5.46,20.85,1.02,0,.36,3.12,0,6.35,0,9.66c0,25.49,17.66,46.15,43.15,46.15"/>
      <path class="cls-1" d="M166.05,36.49c22.17,0,40.69-15.64,45.13-36.49.66,3.12,1.02,6.35,1.02,9.66,0,25.49-17.66,46.15-43.15,46.15"/>
      <path class="cls-2" d="M11.73,72.76v-14.85L61.91,25.91v19.71l-32.26,19.46v.51l32.26,19.46v19.71L11.73,72.76Z"/>
      <path class="cls-2" d="M113.62,16.95h18.18l-42.24,111.36h-18.18L113.62,16.95Z"/>
      <path class="cls-2" d="M152.02,85.05l32.26-19.46v-.51l-32.26-19.46v-19.71l50.18,32v14.85l-50.18,32v-19.71Z"/>
    </g>
  </g>
</svg>